name rise49.5252peak65.1548fall88.8305.mot
datacolumns 19
datarows 33
range 20.46158700000000 20.51491300000000
endheader
time	ground_force1_vx	ground_force1_vy	ground_force1_vz	ground_force1_px	ground_force1_py	ground_force1_pz	ground_force2_vx	ground_force2_vy	ground_force2_vz	ground_force2_px	ground_force2_py	ground_force2_pz	ground_torque1_x	ground_torque1_y	ground_torque1_z	ground_torque2_x	ground_torque2_y	ground_torque2_z	
20.46158700000000	3.34446000000000	681.57390699999996	42.21359600000000	0.23861900000000	0.00000000000000	0.12127400000000	0.00000000000000	0.00000000000000	0.00000000000000	0.00000000000000	0.00000000000000	0.00000000000000	0.00000000000000	19.76810600000000	0.00000000000000	0.00000000000000	0.00000000000000	0.00000000000000	
20.46325000000000	2.88293800000000	682.67181900000003	42.28366300000000	0.23813200000000	0.00000000000000	0.12123000000000	0.00000000000000	0.00000000000000	0.00000000000000	0.00000000000000	0.00000000000000	0.00000000000000	0.00000000000000	19.90285900000000	0.00000000000000	0.00000000000000	0.00000000000000	0.00000000000000	
20.46491900000000	2.40836800000000	683.85020199999997	42.35936700000000	0.23763400000000	0.00000000000000	0.12118800000000	0.00000000000000	0.00000000000000	0.00000000000000	0.00000000000000	0.00000000000000	0.00000000000000	0.00000000000000	20.04406500000000	0.00000000000000	0.00000000000000	0.00000000000000	0.00000000000000	
20.46658000000000	1.92037200000000	685.10732399999995	42.44046400000000	0.23712200000000	0.00000000000000	0.12114500000000	0.00000000000000	0.00000000000000	0.00000000000000	0.00000000000000	0.00000000000000	0.00000000000000	0.00000000000000	20.19148200000000	0.00000000000000	0.00000000000000	0.00000000000000	0.00000000000000	
20.46825000000000	1.41862200000000	686.44140200000004	42.52672000000000	0.23659600000000	0.00000000000000	0.12110300000000	0.00000000000000	0.00000000000000	0.00000000000000	0.00000000000000	0.00000000000000	0.00000000000000	0.00000000000000	20.34486400000000	0.00000000000000	0.00000000000000	0.00000000000000	0.00000000000000	
20.46991900000000	0.90284000000000	687.85060999999996	42.61791000000000	0.23605100000000	0.00000000000000	0.12106200000000	0.00000000000000	0.00000000000000	0.00000000000000	0.00000000000000	0.00000000000000	0.00000000000000	0.00000000000000	20.50395900000000	0.00000000000000	0.00000000000000	0.00000000000000	0.00000000000000	
20.47158800000000	0.37280400000000	689.33308199999999	42.71381900000000	0.23548600000000	0.00000000000000	0.12102200000000	0.00000000000000	0.00000000000000	0.00000000000000	0.00000000000000	0.00000000000000	0.00000000000000	0.00000000000000	20.66851200000000	0.00000000000000	0.00000000000000	0.00000000000000	0.00000000000000	
20.47326200000000	-0.17165400000000	690.88691200000005	42.81424600000000	0.23490000000000	0.00000000000000	0.12098300000000	0.00000000000000	0.00000000000000	0.00000000000000	0.00000000000000	0.00000000000000	0.00000000000000	0.00000000000000	20.83826500000000	0.00000000000000	0.00000000000000	0.00000000000000	0.00000000000000	
20.47491500000000	-0.73064400000000	692.51016100000004	42.91899800000000	0.23429100000000	0.00000000000000	0.12094500000000	0.00000000000000	0.00000000000000	0.00000000000000	0.00000000000000	0.00000000000000	0.00000000000000	0.00000000000000	21.01295500000000	0.00000000000000	0.00000000000000	0.00000000000000	0.00000000000000	
20.47658700000000	-1.30422000000000	694.20085900000004	43.02789700000000	0.23365600000000	0.00000000000000	0.12090800000000	0.00000000000000	0.00000000000000	0.00000000000000	0.00000000000000	0.00000000000000	0.00000000000000	0.00000000000000	21.19232000000000	0.00000000000000	0.00000000000000	0.00000000000000	0.00000000000000	
20.47824900000000	-1.89237600000000	695.95700599999998	43.14077800000000	0.23299600000000	0.00000000000000	0.12087300000000	0.00000000000000	0.00000000000000	0.00000000000000	0.00000000000000	0.00000000000000	0.00000000000000	0.00000000000000	21.37609500000000	0.00000000000000	0.00000000000000	0.00000000000000	0.00000000000000	
20.47991700000000	-2.49504500000000	697.77657699999997	43.25749100000000	0.23230800000000	0.00000000000000	0.12083900000000	0.00000000000000	0.00000000000000	0.00000000000000	0.00000000000000	0.00000000000000	0.00000000000000	0.00000000000000	21.56401500000000	0.00000000000000	0.00000000000000	0.00000000000000	0.00000000000000	
20.48158400000000	-3.11210400000000	699.65752099999997	43.37789800000000	0.23159200000000	0.00000000000000	0.12080600000000	0.00000000000000	0.00000000000000	0.00000000000000	0.00000000000000	0.00000000000000	0.00000000000000	0.00000000000000	21.75581400000000	0.00000000000000	0.00000000000000	0.00000000000000	0.00000000000000	
20.48326400000000	-3.74336600000000	701.59776699999998	43.50187600000000	0.23084800000000	0.00000000000000	0.12077600000000	0.00000000000000	0.00000000000000	0.00000000000000	0.00000000000000	0.00000000000000	0.00000000000000	0.00000000000000	21.95122600000000	0.00000000000000	0.00000000000000	0.00000000000000	0.00000000000000	
20.48492100000000	-4.38858600000000	703.59522000000004	43.62931900000000	0.23007500000000	0.00000000000000	0.12074600000000	0.00000000000000	0.00000000000000	0.00000000000000	0.00000000000000	0.00000000000000	0.00000000000000	0.00000000000000	22.14998500000000	0.00000000000000	0.00000000000000	0.00000000000000	0.00000000000000	
20.48658600000000	-5.04746100000000	705.64776700000004	43.76013500000000	0.22927200000000	0.00000000000000	0.12071900000000	0.00000000000000	0.00000000000000	0.00000000000000	0.00000000000000	0.00000000000000	0.00000000000000	0.00000000000000	22.35182800000000	0.00000000000000	0.00000000000000	0.00000000000000	0.00000000000000	
20.48826300000000	-5.71962800000000	707.75327700000003	43.89424800000000	0.22844100000000	0.00000000000000	0.12069300000000	0.00000000000000	0.00000000000000	0.00000000000000	0.00000000000000	0.00000000000000	0.00000000000000	0.00000000000000	22.55649200000000	0.00000000000000	0.00000000000000	0.00000000000000	0.00000000000000	
20.48992000000000	-6.40466400000000	709.90960099999995	44.03159500000000	0.22758000000000	0.00000000000000	0.12066900000000	0.00000000000000	0.00000000000000	0.00000000000000	0.00000000000000	0.00000000000000	0.00000000000000	0.00000000000000	22.76371500000000	0.00000000000000	0.00000000000000	0.00000000000000	0.00000000000000	
20.49158700000000	-7.10209300000000	712.11457199999995	44.17213400000000	0.22669100000000	0.00000000000000	0.12064600000000	0.00000000000000	0.00000000000000	0.00000000000000	0.00000000000000	0.00000000000000	0.00000000000000	0.00000000000000	22.97323700000000	0.00000000000000	0.00000000000000	0.00000000000000	0.00000000000000	
20.49324900000000	-7.81138200000000	714.36600899999996	44.31583300000000	0.22577500000000	0.00000000000000	0.12062600000000	0.00000000000000	0.00000000000000	0.00000000000000	0.00000000000000	0.00000000000000	0.00000000000000	0.00000000000000	23.18480200000000	0.00000000000000	0.00000000000000	0.00000000000000	0.00000000000000	
20.49491300000000	-8.53194500000000	716.66171199999997	44.46268000000000	0.22483100000000	0.00000000000000	0.12060700000000	0.00000000000000	0.00000000000000	0.00000000000000	0.00000000000000	0.00000000000000	0.00000000000000	0.00000000000000	23.39815400000000	0.00000000000000	0.00000000000000	0.00000000000000	0.00000000000000	
20.49658700000000	-9.26314500000000	718.99946699999998	44.61267700000000	0.22386100000000	0.00000000000000	0.12058900000000	0.00000000000000	0.00000000000000	0.00000000000000	0.00000000000000	0.00000000000000	0.00000000000000	0.00000000000000	23.61304100000000	0.00000000000000	0.00000000000000	0.00000000000000	0.00000000000000	
20.49824900000000	-10.00429500000000	721.37704299999996	44.76584000000000	0.22286700000000	0.00000000000000	0.12057400000000	0.00000000000000	0.00000000000000	0.00000000000000	0.00000000000000	0.00000000000000	0.00000000000000	0.00000000000000	23.82921300000000	0.00000000000000	0.00000000000000	0.00000000000000	0.00000000000000	
20.49991300000000	-10.75466200000000	723.79219300000000	44.92220300000000	0.22184900000000	0.00000000000000	0.12056000000000	0.00000000000000	0.00000000000000	0.00000000000000	0.00000000000000	0.00000000000000	0.00000000000000	0.00000000000000	24.04642400000000	0.00000000000000	0.00000000000000	0.00000000000000	0.00000000000000	
20.50158800000000	-11.51347000000000	726.24265300000002	45.08181200000000	0.22080900000000	0.00000000000000	0.12054700000000	0.00000000000000	0.00000000000000	0.00000000000000	0.00000000000000	0.00000000000000	0.00000000000000	0.00000000000000	24.26443100000000	0.00000000000000	0.00000000000000	0.00000000000000	0.00000000000000	
20.50326400000000	-12.27989800000000	728.72614199999998	45.24472800000000	0.21974800000000	0.00000000000000	0.12053700000000	0.00000000000000	0.00000000000000	0.00000000000000	0.00000000000000	0.00000000000000	0.00000000000000	0.00000000000000	24.48299200000000	0.00000000000000	0.00000000000000	0.00000000000000	0.00000000000000	
20.50491400000000	-13.05309300000000	731.24036100000001	45.41102600000000	0.21866900000000	0.00000000000000	0.12052700000000	0.00000000000000	0.00000000000000	0.00000000000000	0.00000000000000	0.00000000000000	0.00000000000000	0.00000000000000	24.70187000000000	0.00000000000000	0.00000000000000	0.00000000000000	0.00000000000000	
20.50658500000000	-13.83216200000000	733.78299200000004	45.58079500000000	0.21757400000000	0.00000000000000	0.12051900000000	0.00000000000000	0.00000000000000	0.00000000000000	0.00000000000000	0.00000000000000	0.00000000000000	0.00000000000000	24.92083200000000	0.00000000000000	0.00000000000000	0.00000000000000	0.00000000000000	
20.50824800000000	-14.61618300000000	736.35170000000005	45.75413400000000	0.21646300000000	0.00000000000000	0.12051300000000	0.00000000000000	0.00000000000000	0.00000000000000	0.00000000000000	0.00000000000000	0.00000000000000	0.00000000000000	25.13964700000000	0.00000000000000	0.00000000000000	0.00000000000000	0.00000000000000	
20.50991300000000	-15.40420800000000	738.94412699999998	45.93115600000000	0.21533900000000	0.00000000000000	0.12050800000000	0.00000000000000	0.00000000000000	0.00000000000000	0.00000000000000	0.00000000000000	0.00000000000000	0.00000000000000	25.35808700000000	0.00000000000000	0.00000000000000	0.00000000000000	0.00000000000000	
20.51158800000000	-16.19526100000000	741.55789500000003	46.11198300000000	0.21420400000000	0.00000000000000	0.12050400000000	0.00000000000000	0.00000000000000	0.00000000000000	0.00000000000000	0.00000000000000	0.00000000000000	0.00000000000000	25.57592800000000	0.00000000000000	0.00000000000000	0.00000000000000	0.00000000000000	
20.51325100000000	-16.98835000000000	744.19060600000000	46.29674700000000	0.21306100000000	0.00000000000000	0.12050100000000	0.00000000000000	0.00000000000000	0.00000000000000	0.00000000000000	0.00000000000000	0.00000000000000	0.00000000000000	25.79295000000000	0.00000000000000	0.00000000000000	0.00000000000000	0.00000000000000	
20.51491300000000	-17.78246400000000	746.83983699999999	46.48558900000000	0.21191000000000	0.00000000000000	0.12050000000000	0.00000000000000	0.00000000000000	0.00000000000000	0.00000000000000	0.00000000000000	0.00000000000000	0.00000000000000	26.00893700000000	0.00000000000000	0.00000000000000	0.00000000000000	0.00000000000000	
